<svg width="5619" height="1362" viewBox="0 0 5619 1362" fill="none" xmlns="http://www.w3.org/2000/svg">
<g clip-path="url(#clip0_258_28)">
<path d="M4974.69 1055.16V346.26H5145.66V396.3C5188.75 349.04 5257.01 325.41 5337.63 325.41C5503.04 325.41 5618.26 439.39 5618.26 607.58V1055.16H5434.78V638.16C5434.78 554.76 5379.18 492.21 5299.95 492.21C5220.72 492.21 5158.17 554.76 5158.17 632.6V1055.16H4974.69Z" fill="black"/>
<path d="M4100.33 700.96C4100.33 492.46 4274.08 325.66 4492.31 325.66C4710.54 325.66 4885.68 491.07 4885.68 700.96C4885.68 910.85 4711.93 1076.26 4492.31 1076.26C4272.69 1076.26 4100.33 909.46 4100.33 700.96ZM4293.54 700.96C4293.54 816.33 4381.11 906.68 4492.31 906.68C4603.51 906.68 4691.08 816.33 4691.08 700.96C4691.08 585.59 4604.9 495.24 4492.31 495.24C4379.72 495.24 4293.54 585.59 4293.54 700.96Z" fill="black"/>
<path d="M4015.66 931.7C3943.38 1024.83 3830.79 1076.26 3698.74 1076.26C3468 1076.26 3298.42 917.8 3298.42 703.74C3298.42 489.68 3465.22 325.66 3679.28 325.66C3893.34 325.66 4039.29 485.51 4039.29 695.4C4039.29 716.25 4037.9 742.66 4035.12 769.07H3499.97C3518.04 855.25 3588.93 910.85 3694.57 910.85C3766.85 910.85 3818.28 884.44 3869.71 823.28L4015.66 931.7ZM3505.53 623.12H3843.3C3832.18 542.5 3768.24 488.29 3677.89 488.29C3587.54 488.29 3527.77 545.28 3505.53 623.12Z" fill="black"/>
<path d="M2436.79 700.961C2436.79 492.461 2600.81 325.661 2805.14 325.661C2888.54 325.661 2964.99 353.461 3026.15 400.721V40.7109H3209.63V1055.41H3038.66V990.081C2976.11 1044.29 2894.1 1076.26 2805.14 1076.26C2600.81 1076.26 2436.79 909.461 2436.79 700.961ZM2630 700.961C2630 817.721 2717.57 906.681 2828.77 906.681C2939.97 906.681 3026.15 817.721 3026.15 700.961C3026.15 584.201 2938.58 495.241 2828.77 495.241C2718.96 495.241 2630 584.201 2630 700.961Z" fill="black"/>
<path d="M1823.26 1361.21L1967.82 1026.22L1682.87 346.512H1883.03L2069.29 827.452L2258.33 346.512H2458.49L2020.64 1361.21H1823.26Z" fill="black"/>
<path d="M1619.09 346.51V1055.41H1445.34V992.86C1382.79 1045.68 1302.17 1076.26 1214.6 1076.26C1010.27 1076.26 846.25 909.46 846.25 700.96C846.25 492.46 1010.27 325.66 1214.6 325.66C1302.17 325.66 1382.79 356.24 1445.34 409.06V346.51H1619.09ZM1039.46 700.96C1039.46 817.72 1127.03 906.68 1238.23 906.68C1349.43 906.68 1435.61 817.72 1435.61 700.96C1435.61 584.2 1348.04 495.24 1238.23 495.24C1128.42 495.24 1039.46 584.2 1039.46 700.96Z" fill="black"/>
<path d="M193.37 159.222C193.37 185.412 191.99 211.272 189.31 236.742C188.95 240.192 188.56 243.632 188.15 247.072C181.64 246.282 175.16 245.402 168.7 244.432C158.42 242.912 148.22 241.162 138.09 239.192L128.01 237.052C127.93 237.032 127.85 237.022 127.77 237.002L122.75 235.942C52.46 219.882 0 156.682 0 81.1717V60.1817C0.53 41.1617 1.79 22.3217 3.75 3.70172C3.86 2.63172 3.97 1.57172 4.1 0.511719H37.51C123.11 1.60172 192.28 71.1417 193.36 157.182C193.37 157.862 193.37 158.542 193.37 159.222Z" fill="black"/>
<path d="M760.55 571.029C714.89 454.779 610.27 365.969 481.36 337.619L477.19 336.729L476.49 336.579L476.3 336.539H476.28L193.37 276.529L150.89 267.519L121.19 261.219C88.55 254.499 59.08 239.049 35.31 217.389C31.88 214.269 28.57 211.019 25.4 207.639C18.66 200.519 12.5 192.849 6.98 184.719C4.52 181.109 2.2 177.419 0 173.629V702.159C0 839.459 77.64 959.489 193.37 1024.57C251.79 1057.42 319.93 1076.27 392.68 1076.27C609.55 1076.27 785.36 908.769 785.36 702.159C785.36 656.019 776.59 611.829 760.55 571.029ZM392.41 908.959C282.48 908.959 193.37 816.799 193.37 703.119V450.749L430.09 500.949H430.16L430.7 501.079C432.12 501.359 433.54 501.659 434.95 501.979H434.96C524.45 522.139 591.46 604.529 591.46 703.119C591.46 816.799 502.34 908.959 392.41 908.959Z" fill="black"/>
</g>
<defs>
<clipPath id="clip0_258_28">
<rect width="5618.26" height="1361.21" fill="white"/>
</clipPath>
</defs>
</svg>
